<?xml version="1.0" standalone="no"?>
<!DOCTYPE svg PUBLIC "-//W3C//DTD SVG 20010904//EN"
 "http://www.w3.org/TR/2001/REC-SVG-20010904/DTD/svg10.dtd">
<svg version="1.0" xmlns="http://www.w3.org/2000/svg"
 width="2000.000000pt" height="2000.000000pt" viewBox="0 0 2000.000000 2000.000000"
 preserveAspectRatio="xMidYMid meet">
<metadata>
Created by potrace 1.11, written by Peter Selinger 2001-2013
</metadata>
<g transform="translate(0.000000,2000.000000) scale(0.100000,-0.100000)"
fill="#000000" stroke="none">
<path d="M7654 19271 c-40 -25 -79 -104 -100 -201 -21 -105 -30 -467 -15 -672
65 -903 328 -2126 567 -2638 39 -84 84 -124 204 -183 57 -28 75 -32 146 -32
77 0 85 2 121 31 115 92 169 276 180 619 14 439 -73 1118 -223 1733 -69 282
-111 401 -210 585 -231 431 -418 687 -547 752 -61 30 -82 31 -123 6z"/>
<path d="M12675 18471 c-58 -26 -160 -142 -233 -264 -141 -238 -303 -629 -383
-927 -21 -78 -23 -106 -23 -335 0 -215 2 -256 17 -295 36 -91 76 -103 145 -44
135 115 350 547 526 1054 97 278 174 597 162 664 -14 74 -98 166 -151 166 -11
0 -38 -9 -60 -19z"/>
<path d="M16965 15724 c-427 -148 -1372 -818 -1939 -1374 -190 -186 -315 -336
-369 -441 -33 -63 -37 -80 -37 -143 0 -88 26 -152 64 -162 68 -17 153 31 306
169 92 83 102 89 305 183 518 239 776 386 985 562 280 235 719 757 846 1008
54 105 67 173 39 204 -25 28 -110 25 -200 -6z"/>
<path d="M2421 15454 c-25 -32 -23 -59 14 -139 65 -145 327 -445 652 -748 722
-672 1473 -1187 1730 -1187 103 0 213 57 213 109 0 63 -69 139 -238 261 -99
72 -110 84 -260 280 -245 323 -338 435 -472 574 -253 260 -522 444 -975 665
-285 140 -448 200 -566 208 -74 5 -76 5 -98 -23z"/>
<path d="M10295 15129 c-121 -20 -208 -69 -477 -266 -529 -387 -798 -626
-1016 -901 -211 -266 -440 -675 -533 -952 -92 -276 -91 -585 3 -880 132 -415
445 -796 854 -1039 94 -57 105 -67 128 -114 14 -29 31 -86 37 -127 14 -93 6
-338 -16 -469 -17 -102 -52 -250 -64 -269 -8 -13 -372 37 -581 79 -211 42
-481 153 -605 247 -218 165 -411 693 -545 1490 -83 496 -141 1161 -127 1472 6
138 -1 172 -50 242 -90 132 -365 242 -496 199 -128 -43 -284 -422 -362 -882
-52 -308 -60 -424 -60 -859 0 -363 3 -422 23 -568 42 -311 84 -467 185 -689
181 -402 383 -645 732 -882 132 -90 665 -406 830 -492 154 -80 220 -109 505
-219 118 -45 270 -108 336 -140 l121 -57 7 -140 c8 -145 1 -285 -16 -340 -21
-69 -146 -149 -368 -236 -265 -103 -598 -204 -855 -257 -137 -29 -289 -65
-337 -81 -244 -79 -366 -191 -420 -384 -21 -76 -22 -98 -22 -460 0 -387 9
-600 45 -988 67 -741 172 -1246 312 -1512 66 -125 223 -246 339 -261 92 -13
195 62 256 186 23 47 27 67 27 140 0 47 -8 146 -18 220 -9 74 -22 218 -28 320
-15 246 -6 1001 15 1250 20 225 53 486 66 510 16 30 82 82 135 106 66 30 202
69 318 91 128 24 562 24 620 0 73 -31 76 -45 162 -907 114 -1138 173 -1509
276 -1717 93 -188 239 -266 413 -219 l63 18 6 461 c5 443 16 643 52 1022 62
643 181 1389 240 1505 45 88 139 155 305 215 92 33 321 89 455 111 128 21 336
21 431 0 425 -92 679 -434 813 -1092 55 -270 85 -540 126 -1149 38 -554 62
-785 90 -853 36 -84 99 -114 188 -88 103 30 181 114 211 228 75 288 105 1377
56 2058 -44 614 -126 1022 -240 1199 -49 76 -144 144 -340 245 -251 129 -563
243 -885 325 -270 68 -314 73 -585 77 -151 1 -256 7 -275 14 -38 14 -108 72
-141 116 l-27 35 18 40 c25 53 85 106 132 115 55 11 505 -22 738 -53 161 -21
241 -26 410 -27 237 0 300 11 441 79 113 54 146 91 182 205 58 181 131 543
221 1100 188 1149 429 3102 448 3631 5 150 4 172 -15 235 -39 127 -113 184
-238 184 -80 -1 -147 -24 -238 -85 -98 -65 -163 -131 -198 -202 l-32 -66 -1
-246 c-1 -206 -6 -278 -29 -446 -175 -1291 -536 -2460 -918 -2966 -167 -222
-337 -335 -518 -347 -96 -6 -177 15 -285 71 -132 70 -140 100 -110 427 47 508
136 1085 193 1250 11 31 78 154 151 274 123 205 343 625 391 746 80 200 243
830 286 1097 16 102 16 104 -10 235 -36 188 -70 298 -126 414 -135 279 -330
418 -813 581 -208 70 -268 80 -372 62z m279 -838 c26 -44 33 -182 16 -289 -49
-309 -216 -579 -643 -1042 -84 -91 -219 -240 -299 -331 -252 -286 -373 -374
-438 -321 -53 43 -28 221 60 429 189 445 647 1111 983 1429 171 161 276 202
321 125z"/>
<path d="M15721 8189 c-151 -25 -161 -108 -28 -222 69 -59 225 -160 367 -238
395 -217 1067 -477 1306 -505 56 -7 119 15 180 61 155 118 -60 347 -563 599
-186 93 -393 180 -563 237 -129 43 -163 50 -304 64 -174 16 -311 18 -395 4z"/>
<path d="M4090 8183 c-231 -35 -362 -66 -590 -135 -434 -132 -657 -251 -898
-483 -132 -126 -160 -193 -99 -239 25 -19 42 -21 150 -20 135 0 271 22 500 80
450 113 1014 326 1223 462 50 32 64 48 84 93 14 33 24 75 24 107 1 49 -2 56
-35 87 -24 22 -54 36 -88 44 -49 10 -215 13 -271 4z"/>
<path d="M6469 3447 c-143 -54 -438 -371 -819 -878 -183 -245 -265 -393 -319
-579 -46 -157 -36 -334 21 -387 83 -78 182 -42 380 140 240 220 476 525 718
927 51 85 130 209 176 275 94 139 138 222 159 302 25 97 -10 169 -94 193 -63
18 -183 22 -222 7z"/>
<path d="M12978 2711 c-46 -15 -87 -51 -111 -94 -57 -108 -4 -454 114 -743
118 -288 307 -565 568 -836 130 -135 332 -318 352 -318 20 0 137 79 164 112
44 52 42 79 -18 259 l-55 164 -11 200 c-6 110 -14 252 -17 316 l-6 115 -74 95
c-41 51 -112 153 -156 224 -100 160 -148 222 -230 302 -136 132 -276 203 -413
209 -44 2 -92 0 -107 -5z"/>
</g>
</svg>
